<?xml version="1.0" encoding="utf-8"?>
<!-- Svg Vector Icons : http://www.onlinewebfonts.com/icon -->
<!DOCTYPE svg PUBLIC "-//W3C//DTD SVG 1.1//EN" "http://www.w3.org/Graphics/SVG/1.1/DTD/svg11.dtd">
<svg version="1.1" xmlns="http://www.w3.org/2000/svg" xmlns:xlink="http://www.w3.org/1999/xlink" x="0px" y="0px" viewBox="0 0 1000 1000" enable-background="new 0 0 1000 1000" xml:space="preserve">
<metadata> Svg Vector Icons : http://www.onlinewebfonts.com/icon </metadata>
<g><g transform="translate(0.000000,511.000000) scale(0.100000,-0.100000)"><path d="M437.3,4034.9c-98.8-31.6-282.5-221.2-312.1-322c-33.6-118.5-33.6-5980.9,0-6099.4c31.6-108.6,215.3-292.3,323.9-323.9c61.2-17.8,436.5-23.7,1447.8-23.7h1364.9v-395v-395h-395h-395v-158v-158H5000h2528.3v158v158h-395h-395v395v395H8103c1011.3,0,1386.6,5.9,1447.9,23.7c108.6,31.6,292.3,215.3,323.9,323.9c33.6,118.5,33.6,5980.9,0,6099.4c-31.6,108.6-215.3,292.3-323.9,323.9C9438.3,4068.4,541.9,4068.4,437.3,4034.9z M9543,3705c39.5-39.5,39.5-65.2,39.5-2528.3V-1312H5000H417.5v2488.8c0,2463.1,0,2488.8,39.5,2528.3c39.5,39.5,65.2,39.5,4543,39.5C9477.8,3744.5,9503.5,3744.5,9543,3705z M9582.5-1983.6c0-329.9-2-357.5-39.5-395c-39.5-39.5-65.2-39.5-4543-39.5c-4477.8,0-4503.5,0-4543,39.5c-37.5,37.5-39.5,65.2-39.5,395v355.5H5000h4582.5V-1983.6z M6422.1-3129.2v-395H5000H3577.8v395v395H5000h1422.1V-3129.2z"/><path d="M1525.6,2820.1c-9.9-19.8-173.8-422.7-363.4-896.8l-345.7-865.1h590.6h590.6V347.1v-711.1h158h158v711.1v711.1h474.1h474v158v158h-474h-474.1v237v237h-158h-158v-237v-237h-355.5c-195.6,0-355.5,4-355.5,9.9s120.5,308.1,266.7,673.5c146.2,367.4,262.7,669.6,256.8,675.5c-5.9,5.9-67.2,35.6-138.3,65.2C1555.2,2847.8,1541.4,2849.7,1525.6,2820.1z"/><path d="M4818.3,2816.2c-474.1-84.9-849.3-406.9-1019.2-873l-53.3-144.2v-582.7c0-580.7,0-582.7,53.3-726.9c144.2-399,448.4-701.2,831.6-825.6c132.3-43.4,199.5-53.3,369.4-53.3c181.7-2,229.1,5.9,377.3,59.3c393.1,136.3,679.5,420.7,823.7,819.7c53.3,144.2,53.3,146.2,53.3,726.9c0,580.7,0,582.7-53.3,726.9c-183.7,509.6-624.2,851.3-1135.8,880.9C4980.2,2830,4869.6,2826,4818.3,2816.2z M5199.5,2500.1c347.6-65.2,628.1-331.8,719-681.5c43.5-167.9,43.5-1037,0-1204.9c-132.3-503.7-630.1-794-1151.5-671.6c-343.7,81-594.6,327.9-685.4,671.6c-43.5,167.9-43.5,1037,0,1204.9C4209.9,2308.5,4684,2596.9,5199.5,2500.1z"/><path d="M7018.7,1947.1l-355.5-888.8h590.6h590.6V347.1v-711.1h158h158v711.1v711.1h474.1h474v158v158h-474h-474.1v237v237h-158h-158v-237v-237h-355.5c-195.6,0-355.5,4-355.5,9.9c0,4,120.5,308.1,266.7,675.5c146.2,365.4,260.7,671.6,252.8,677.5c-27.6,23.7-219.2,98.8-248.9,98.8C7384.1,2835.9,7259.6,2551.5,7018.7,1947.1z"/></g></g>
</svg>