<?xml version="1.0" encoding="UTF-8" standalone="no"?>
<!DOCTYPE svg PUBLIC "-//W3C//DTD SVG 1.1//EN"
 "http://www.w3.org/Graphics/SVG/1.1/DTD/svg11.dtd">
<!-- Generated by graphviz version 2.42.3 ()
 -->
<!-- Title: perl6&#45;type&#45;graph Pages: 1 -->
<svg width="312pt" height="188pt"
 viewBox="0.00 0.00 312.17 188.00" xmlns="http://www.w3.org/2000/svg" xmlns:xlink="http://www.w3.org/1999/xlink">
<g id="graph0" class="graph" transform="scale(1 1) rotate(0) translate(4 184)">
<title>perl6&#45;type&#45;graph</title>
<polygon fill="white" stroke="transparent" points="-4,4 -4,-184 308.17,-184 308.17,4 -4,4"/>
<!-- X::Documentable::TypeNotFound -->
<g id="node1" class="node">
<title>X::Documentable::TypeNotFound</title>
<g id="a_node1"><a xlink:href="/type/X::Documentable::TypeNotFound" xlink:title="X::Documentable::TypeNotFound">
<ellipse fill="none" stroke="#000000" cx="152.09" cy="-18" rx="152.17" ry="18"/>
<text text-anchor="middle" x="152.09" y="-14.3" font-family="FreeSans" font-size="14.00" fill="#000000">X::Documentable::TypeNotFound</text>
</a>
</g>
</g>
<!-- Exception -->
<g id="node3" class="node">
<title>Exception</title>
<g id="a_node3"><a xlink:href="/type/Exception" xlink:title="Exception">
<ellipse fill="none" stroke="#000000" cx="152.09" cy="-90" rx="54.69" ry="18"/>
<text text-anchor="middle" x="152.09" y="-86.3" font-family="FreeSans" font-size="14.00" fill="#000000">Exception</text>
</a>
</g>
</g>
<!-- X::Documentable::TypeNotFound&#45;&gt;Exception -->
<g id="edge1" class="edge">
<title>X::Documentable::TypeNotFound&#45;&gt;Exception</title>
<path fill="none" stroke="#000000" d="M152.09,-36.3C152.09,-44.02 152.09,-53.29 152.09,-61.89"/>
<polygon fill="#000000" stroke="#000000" points="148.59,-61.9 152.09,-71.9 155.59,-61.9 148.59,-61.9"/>
</g>
<!-- Any -->
<g id="node2" class="node">
<title>Any</title>
<g id="a_node2"><a xlink:href="/type/Any" xlink:title="Any">
<ellipse fill="none" stroke="#000000" cx="152.09" cy="-162" rx="27" ry="18"/>
<text text-anchor="middle" x="152.09" y="-158.3" font-family="FreeSans" font-size="14.00" fill="#000000">Any</text>
</a>
</g>
</g>
<!-- Exception&#45;&gt;Any -->
<g id="edge2" class="edge">
<title>Exception&#45;&gt;Any</title>
<path fill="none" stroke="#000000" d="M152.09,-108.3C152.09,-116.02 152.09,-125.29 152.09,-133.89"/>
<polygon fill="#000000" stroke="#000000" points="148.59,-133.9 152.09,-143.9 155.59,-133.9 148.59,-133.9"/>
</g>
</g>
</svg>
