<?xml version="1.0" encoding="UTF-8" standalone="no"?>
<!DOCTYPE svg PUBLIC "-//W3C//DTD SVG 1.1//EN"
 "http://www.w3.org/Graphics/SVG/1.1/DTD/svg11.dtd">
<!-- Generated by graphviz version 2.42.3 ()
 -->
<!-- Title: perl6&#45;type&#45;graph Pages: 1 -->
<svg width="215pt" height="188pt"
 viewBox="0.00 0.00 214.68 188.00" xmlns="http://www.w3.org/2000/svg" xmlns:xlink="http://www.w3.org/1999/xlink">
<g id="graph0" class="graph" transform="scale(1 1) rotate(0) translate(4 184)">
<title>perl6&#45;type&#45;graph</title>
<polygon fill="white" stroke="transparent" points="-4,4 -4,-184 210.68,-184 210.68,4 -4,4"/>
<!-- Documentable::Index -->
<g id="node1" class="node">
<title>Documentable::Index</title>
<g id="a_node1"><a xlink:href="/type/Documentable::Index" xlink:title="Documentable::Index">
<ellipse fill="none" stroke="#000000" cx="103.34" cy="-18" rx="103.18" ry="18"/>
<text text-anchor="middle" x="103.34" y="-14.3" font-family="FreeSans" font-size="14.00" fill="#000000">Documentable::Index</text>
</a>
</g>
</g>
<!-- Documentable -->
<g id="node3" class="node">
<title>Documentable</title>
<g id="a_node3"><a xlink:href="/type/Documentable" xlink:title="Documentable">
<ellipse fill="none" stroke="#000000" cx="103.34" cy="-90" rx="69.59" ry="18"/>
<text text-anchor="middle" x="103.34" y="-86.3" font-family="FreeSans" font-size="14.00" fill="#000000">Documentable</text>
</a>
</g>
</g>
<!-- Documentable::Index&#45;&gt;Documentable -->
<g id="edge1" class="edge">
<title>Documentable::Index&#45;&gt;Documentable</title>
<path fill="none" stroke="#000000" d="M103.34,-36.3C103.34,-44.02 103.34,-53.29 103.34,-61.89"/>
<polygon fill="#000000" stroke="#000000" points="99.84,-61.9 103.34,-71.9 106.84,-61.9 99.84,-61.9"/>
</g>
<!-- Any -->
<g id="node2" class="node">
<title>Any</title>
<g id="a_node2"><a xlink:href="/type/Any" xlink:title="Any">
<ellipse fill="none" stroke="#000000" cx="103.34" cy="-162" rx="27" ry="18"/>
<text text-anchor="middle" x="103.34" y="-158.3" font-family="FreeSans" font-size="14.00" fill="#000000">Any</text>
</a>
</g>
</g>
<!-- Documentable&#45;&gt;Any -->
<g id="edge2" class="edge">
<title>Documentable&#45;&gt;Any</title>
<path fill="none" stroke="#000000" d="M103.34,-108.3C103.34,-116.02 103.34,-125.29 103.34,-133.89"/>
<polygon fill="#000000" stroke="#000000" points="99.84,-133.9 103.34,-143.9 106.84,-133.9 99.84,-133.9"/>
</g>
</g>
</svg>
