<?xml version="1.0" encoding="UTF-8" standalone="no"?>
<!DOCTYPE svg PUBLIC "-//W3C//DTD SVG 1.1//EN"
 "http://www.w3.org/Graphics/SVG/1.1/DTD/svg11.dtd">
<!-- Generated by graphviz version 2.42.3 ()
 -->
<!-- Title: perl6&#45;type&#45;graph Pages: 1 -->
<svg width="636pt" height="260pt"
 viewBox="0.00 0.00 635.76 260.00" xmlns="http://www.w3.org/2000/svg" xmlns:xlink="http://www.w3.org/1999/xlink">
<g id="graph0" class="graph" transform="scale(1 1) rotate(0) translate(4 256)">
<title>perl6&#45;type&#45;graph</title>
<polygon fill="white" stroke="transparent" points="-4,4 -4,-256 631.76,-256 631.76,4 -4,4"/>
<!-- X::Documentable::Config::InvalidConfig -->
<g id="node1" class="node">
<title>X::Documentable::Config::InvalidConfig</title>
<g id="a_node1"><a xlink:href="/type/X::Documentable::Config::InvalidConfig" xlink:title="X::Documentable::Config::InvalidConfig">
<ellipse fill="none" stroke="#000000" cx="196.28" cy="-234" rx="196.07" ry="18"/>
<text text-anchor="middle" x="196.28" y="-230.3" font-family="FreeSans" font-size="14.00" fill="#000000">X::Documentable::Config::InvalidConfig</text>
</a>
</g>
</g>
<!-- Exception -->
<g id="node6" class="node">
<title>Exception</title>
<g id="a_node6"><a xlink:href="/type/Exception" xlink:title="Exception">
<ellipse fill="none" stroke="#000000" cx="483.16" cy="-126" rx="54.69" ry="18"/>
<text text-anchor="middle" x="483.16" y="-122.3" font-family="FreeSans" font-size="14.00" fill="#000000">Exception</text>
</a>
</g>
</g>
<!-- X::Documentable::Config::InvalidConfig&#45;&gt;Exception -->
<g id="edge1" class="edge">
<title>X::Documentable::Config::InvalidConfig&#45;&gt;Exception</title>
<path fill="none" stroke="#000000" d="M305.49,-219.04C350.55,-212.81 392.57,-207 392.57,-207 392.57,-207 429.26,-173.83 455.68,-149.94"/>
<polygon fill="#000000" stroke="#000000" points="458.09,-152.48 463.16,-143.18 453.39,-147.29 458.09,-152.48"/>
</g>
<!-- X::Documentable::MissingMetadata -->
<g id="node2" class="node">
<title>X::Documentable::MissingMetadata</title>
<g id="a_node2"><a xlink:href="/type/X::Documentable::MissingMetadata" xlink:title="X::Documentable::MissingMetadata">
<ellipse fill="none" stroke="#000000" cx="196.28" cy="-180" rx="167.07" ry="18"/>
<text text-anchor="middle" x="196.28" y="-176.3" font-family="FreeSans" font-size="14.00" fill="#000000">X::Documentable::MissingMetadata</text>
</a>
</g>
</g>
<!-- X::Documentable::MissingMetadata&#45;&gt;Exception -->
<g id="edge2" class="edge">
<title>X::Documentable::MissingMetadata&#45;&gt;Exception</title>
<path fill="none" stroke="#000000" d="M299.79,-165.83C346.93,-159.31 392.57,-153 392.57,-153 392.57,-153 411.83,-147.2 432.49,-140.97"/>
<polygon fill="#000000" stroke="#000000" points="433.78,-144.24 442.34,-138 431.76,-137.53 433.78,-144.24"/>
</g>
<!-- X::Documentable::SubtitleNotFound -->
<g id="node3" class="node">
<title>X::Documentable::SubtitleNotFound</title>
<g id="a_node3"><a xlink:href="/type/X::Documentable::SubtitleNotFound" xlink:title="X::Documentable::SubtitleNotFound">
<ellipse fill="none" stroke="#000000" cx="196.28" cy="-126" rx="171.67" ry="18"/>
<text text-anchor="middle" x="196.28" y="-122.3" font-family="FreeSans" font-size="14.00" fill="#000000">X::Documentable::SubtitleNotFound</text>
</a>
</g>
</g>
<!-- X::Documentable::SubtitleNotFound&#45;&gt;Exception -->
<g id="edge3" class="edge">
<title>X::Documentable::SubtitleNotFound&#45;&gt;Exception</title>
<path fill="none" stroke="#000000" d="M367.93,-126C385.65,-126 402.76,-126 418.1,-126"/>
<polygon fill="#000000" stroke="#000000" points="418.43,-129.5 428.43,-126 418.43,-122.5 418.43,-129.5"/>
</g>
<!-- X::Documentable::TitleNotFound -->
<g id="node4" class="node">
<title>X::Documentable::TitleNotFound</title>
<g id="a_node4"><a xlink:href="/type/X::Documentable::TitleNotFound" xlink:title="X::Documentable::TitleNotFound">
<ellipse fill="none" stroke="#000000" cx="196.28" cy="-72" rx="157.07" ry="18"/>
<text text-anchor="middle" x="196.28" y="-68.3" font-family="FreeSans" font-size="14.00" fill="#000000">X::Documentable::TitleNotFound</text>
</a>
</g>
</g>
<!-- X::Documentable::TitleNotFound&#45;&gt;Exception -->
<g id="edge4" class="edge">
<title>X::Documentable::TitleNotFound&#45;&gt;Exception</title>
<path fill="none" stroke="#000000" d="M297.21,-85.82C345.26,-92.46 392.57,-99 392.57,-99 392.57,-99 411.83,-104.8 432.49,-111.03"/>
<polygon fill="#000000" stroke="#000000" points="431.76,-114.47 442.34,-114 433.78,-107.76 431.76,-114.47"/>
</g>
<!-- X::Documentable::TypeNotFound -->
<g id="node5" class="node">
<title>X::Documentable::TypeNotFound</title>
<g id="a_node5"><a xlink:href="/type/X::Documentable::TypeNotFound" xlink:title="X::Documentable::TypeNotFound">
<ellipse fill="none" stroke="#000000" cx="196.28" cy="-18" rx="152.17" ry="18"/>
<text text-anchor="middle" x="196.28" y="-14.3" font-family="FreeSans" font-size="14.00" fill="#000000">X::Documentable::TypeNotFound</text>
</a>
</g>
</g>
<!-- X::Documentable::TypeNotFound&#45;&gt;Exception -->
<g id="edge5" class="edge">
<title>X::Documentable::TypeNotFound&#45;&gt;Exception</title>
<path fill="none" stroke="#000000" d="M295.78,-31.62C344.31,-38.33 392.57,-45 392.57,-45 392.57,-45 429.26,-78.17 455.68,-102.06"/>
<polygon fill="#000000" stroke="#000000" points="453.39,-104.71 463.16,-108.82 458.09,-99.52 453.39,-104.71"/>
</g>
<!-- Any -->
<g id="node7" class="node">
<title>Any</title>
<g id="a_node7"><a xlink:href="/type/Any" xlink:title="Any">
<ellipse fill="none" stroke="#000000" cx="600.76" cy="-126" rx="27" ry="18"/>
<text text-anchor="middle" x="600.76" y="-122.3" font-family="FreeSans" font-size="14.00" fill="#000000">Any</text>
</a>
</g>
</g>
<!-- Exception&#45;&gt;Any -->
<g id="edge6" class="edge">
<title>Exception&#45;&gt;Any</title>
<path fill="none" stroke="#000000" d="M537.9,-126C546.51,-126 555.24,-126 563.32,-126"/>
<polygon fill="#000000" stroke="#000000" points="563.5,-129.5 573.5,-126 563.5,-122.5 563.5,-129.5"/>
</g>
</g>
</svg>
