<?xml version="1.0" encoding="UTF-8" standalone="no"?>
<!DOCTYPE svg PUBLIC "-//W3C//DTD SVG 1.1//EN"
 "http://www.w3.org/Graphics/SVG/1.1/DTD/svg11.dtd">
<!-- Generated by graphviz version 2.42.3 ()
 -->
<!-- Title: perl6&#45;type&#45;graph Pages: 1 -->
<svg width="932pt" height="1622pt"
 viewBox="0.00 0.00 931.83 1622.00" xmlns="http://www.w3.org/2000/svg" xmlns:xlink="http://www.w3.org/1999/xlink">
<g id="graph0" class="graph" transform="scale(1 1) rotate(0) translate(4 1618)">
<title>perl6&#45;type&#45;graph</title>
<polygon fill="white" stroke="transparent" points="-4,4 -4,-1618 927.83,-1618 927.83,4 -4,4"/>
<g id="clust1" class="cluster">
<title>cluster: Mu children</title>
</g>
<g id="clust2" class="cluster">
<title>cluster: Pod:: top level</title>
</g>
<g id="clust3" class="cluster">
<title>cluster: Date/time handling</title>
</g>
<g id="clust4" class="cluster">
<title>cluster: Collection roles</title>
</g>
<!-- Any -->
<g id="node1" class="node">
<title>Any</title>
<g id="a_node1"><a xlink:href="/type/Any" xlink:title="Any">
<ellipse fill="none" stroke="#000000" cx="857.78" cy="-288" rx="27" ry="18"/>
<text text-anchor="middle" x="857.78" y="-284.3" font-family="FreeSans" font-size="14.00" fill="#000000">Any</text>
</a>
</g>
</g>
<!-- Junction -->
<g id="node2" class="node">
<title>Junction</title>
<ellipse fill="none" stroke="black" cx="857.78" cy="-234" rx="50.09" ry="18"/>
<text text-anchor="middle" x="857.78" y="-230.3" font-family="Times,serif" font-size="14.00">Junction</text>
</g>
<!-- Pod::Config -->
<g id="node3" class="node">
<title>Pod::Config</title>
<ellipse fill="none" stroke="black" cx="206.03" cy="-720" rx="64.19" ry="18"/>
<text text-anchor="middle" x="206.03" y="-716.3" font-family="Times,serif" font-size="14.00">Pod::Config</text>
</g>
<!-- Pod::Block -->
<g id="node4" class="node">
<title>Pod::Block</title>
<ellipse fill="none" stroke="black" cx="206.03" cy="-666" rx="59.59" ry="18"/>
<text text-anchor="middle" x="206.03" y="-662.3" font-family="Times,serif" font-size="14.00">Pod::Block</text>
</g>
<!-- Date -->
<g id="node5" class="node">
<title>Date</title>
<ellipse fill="none" stroke="black" cx="206.03" cy="-888" rx="30.59" ry="18"/>
<text text-anchor="middle" x="206.03" y="-884.3" font-family="Times,serif" font-size="14.00">Date</text>
</g>
<!-- DateTime -->
<g id="node6" class="node">
<title>DateTime</title>
<ellipse fill="none" stroke="black" cx="206.03" cy="-834" rx="50.09" ry="18"/>
<text text-anchor="middle" x="206.03" y="-830.3" font-family="Times,serif" font-size="14.00">DateTime</text>
</g>
<!-- DateTime&#45;local&#45;timezone -->
<g id="node7" class="node">
<title>DateTime&#45;local&#45;timezone</title>
<ellipse fill="none" stroke="black" cx="206.03" cy="-780" rx="122.68" ry="18"/>
<text text-anchor="middle" x="206.03" y="-776.3" font-family="Times,serif" font-size="14.00">DateTime&#45;local&#45;timezone</text>
</g>
<!-- Positional -->
<g id="node8" class="node">
<title>Positional</title>
<ellipse fill="none" stroke="black" cx="206.03" cy="-1056" rx="59.59" ry="18"/>
<text text-anchor="middle" x="206.03" y="-1052.3" font-family="Times,serif" font-size="14.00">Positional</text>
</g>
<!-- Associative -->
<g id="node9" class="node">
<title>Associative</title>
<ellipse fill="none" stroke="black" cx="206.03" cy="-1002" rx="64.19" ry="18"/>
<text text-anchor="middle" x="206.03" y="-998.3" font-family="Times,serif" font-size="14.00">Associative</text>
</g>
<!-- Baggy -->
<g id="node10" class="node">
<title>Baggy</title>
<ellipse fill="none" stroke="black" cx="206.03" cy="-948" rx="35.19" ry="18"/>
<text text-anchor="middle" x="206.03" y="-944.3" font-family="Times,serif" font-size="14.00">Baggy</text>
</g>
<!-- Documentable -->
<g id="node11" class="node">
<title>Documentable</title>
<g id="a_node11"><a xlink:href="/type/Documentable" xlink:title="Documentable">
<ellipse fill="none" stroke="#000000" cx="609.9" cy="-558" rx="69.59" ry="18"/>
<text text-anchor="middle" x="609.9" y="-554.3" font-family="FreeSans" font-size="14.00" fill="#000000">Documentable</text>
</a>
</g>
</g>
<!-- Documentable&#45;&gt;Any -->
<g id="edge1" class="edge">
<title>Documentable&#45;&gt;Any</title>
<path fill="none" stroke="#000000" d="M668.96,-548.25C715.03,-540.52 771.73,-531 771.73,-531 771.73,-531 825.06,-378.63 847.26,-315.2"/>
<polygon fill="#000000" stroke="#000000" points="850.66,-316.07 850.66,-305.48 844.06,-313.76 850.66,-316.07"/>
</g>
<!-- Documentable::Config -->
<g id="node12" class="node">
<title>Documentable::Config</title>
<g id="a_node12"><a xlink:href="/type/Documentable::Config" xlink:title="Documentable::Config">
<ellipse fill="none" stroke="#000000" cx="609.9" cy="-504" rx="108.58" ry="18"/>
<text text-anchor="middle" x="609.9" y="-500.3" font-family="FreeSans" font-size="14.00" fill="#000000">Documentable::Config</text>
</a>
</g>
</g>
<!-- Documentable::Config&#45;&gt;Any -->
<g id="edge2" class="edge">
<title>Documentable::Config&#45;&gt;Any</title>
<path fill="none" stroke="#000000" d="M687.08,-491.21C728.65,-484.23 771.73,-477 771.73,-477 771.73,-477 821.52,-366.35 844.91,-314.38"/>
<polygon fill="#000000" stroke="#000000" points="848.17,-315.66 849.08,-305.11 841.79,-312.79 848.17,-315.66"/>
</g>
<!-- Documentable::DocPage -->
<g id="node13" class="node">
<title>Documentable::DocPage</title>
<g id="a_node13"><a xlink:href="/type/Documentable::DocPage" xlink:title="Documentable::DocPage">
<ellipse fill="none" stroke="#6666ff" cx="609.9" cy="-1353" rx="113.18" ry="18"/>
<text text-anchor="middle" x="609.9" y="-1349.3" font-family="FreeSans" font-size="14.00" fill="#6666ff">Documentable::DocPage</text>
</a>
</g>
</g>
<!-- Documentable::DocPage::Factory -->
<g id="node14" class="node">
<title>Documentable::DocPage::Factory</title>
<g id="a_node14"><a xlink:href="/type/Documentable::DocPage::Factory" xlink:title="Documentable::DocPage::Factory">
<ellipse fill="none" stroke="#000000" cx="609.9" cy="-450" rx="157.07" ry="18"/>
<text text-anchor="middle" x="609.9" y="-446.3" font-family="FreeSans" font-size="14.00" fill="#000000">Documentable::DocPage::Factory</text>
</a>
</g>
</g>
<!-- Documentable::DocPage::Factory&#45;&gt;Any -->
<g id="edge3" class="edge">
<title>Documentable::DocPage::Factory&#45;&gt;Any</title>
<path fill="none" stroke="#000000" d="M699.32,-435.16C736.69,-428.88 771.73,-423 771.73,-423 771.73,-423 816.22,-352.38 840.85,-313.29"/>
<polygon fill="#000000" stroke="#000000" points="843.98,-314.88 846.35,-304.55 838.06,-311.15 843.98,-314.88"/>
</g>
<!-- Documentable::DocPage::Index -->
<g id="node15" class="node">
<title>Documentable::DocPage::Index</title>
<g id="a_node15"><a xlink:href="/type/Documentable::DocPage::Index" xlink:title="Documentable::DocPage::Index">
<ellipse fill="none" stroke="#000000" cx="609.9" cy="-396" rx="147.57" ry="18"/>
<text text-anchor="middle" x="609.9" y="-392.3" font-family="FreeSans" font-size="14.00" fill="#000000">Documentable::DocPage::Index</text>
</a>
</g>
</g>
<!-- Documentable::DocPage::Index&#45;&gt;Any -->
<g id="edge4" class="edge">
<title>Documentable::DocPage::Index&#45;&gt;Any</title>
<path fill="none" stroke="#000000" d="M697.44,-381.47C735.51,-375.08 771.73,-369 771.73,-369 771.73,-369 809,-333.5 834.2,-309.51"/>
<polygon fill="#000000" stroke="#000000" points="836.75,-311.91 841.58,-302.48 831.92,-306.84 836.75,-311.91"/>
</g>
<!-- Documentable::DocPage::Index::Language -->
<g id="node16" class="node">
<title>Documentable::DocPage::Index::Language</title>
<g id="a_node16"><a xlink:href="/type/Documentable::DocPage::Index::Language" xlink:title="Documentable::DocPage::Index::Language">
<ellipse fill="none" stroke="#000000" cx="206.03" cy="-1596" rx="196.07" ry="18"/>
<text text-anchor="middle" x="206.03" y="-1592.3" font-family="FreeSans" font-size="14.00" fill="#000000">Documentable::DocPage::Index::Language</text>
</a>
</g>
</g>
<!-- Documentable::DocPage::Index::Language&#45;&gt;Documentable::DocPage -->
<g id="edge5" class="edge">
<title>Documentable::DocPage::Index::Language&#45;&gt;Documentable::DocPage</title>
<path fill="none" stroke="#000000" d="M319.15,-1581.24C367.01,-1574.93 412.06,-1569 412.06,-1569 412.06,-1569 533.46,-1435.78 585.58,-1378.59"/>
<polygon fill="#000000" stroke="#000000" points="588.31,-1380.79 592.46,-1371.04 583.13,-1376.08 588.31,-1380.79"/>
</g>
<!-- Documentable::DocPage::Index::Programs -->
<g id="node17" class="node">
<title>Documentable::DocPage::Index::Programs</title>
<g id="a_node17"><a xlink:href="/type/Documentable::DocPage::Index::Programs" xlink:title="Documentable::DocPage::Index::Programs">
<ellipse fill="none" stroke="#000000" cx="206.03" cy="-1542" rx="196.07" ry="18"/>
<text text-anchor="middle" x="206.03" y="-1538.3" font-family="FreeSans" font-size="14.00" fill="#000000">Documentable::DocPage::Index::Programs</text>
</a>
</g>
</g>
<!-- Documentable::DocPage::Index::Programs&#45;&gt;Documentable::DocPage -->
<g id="edge6" class="edge">
<title>Documentable::DocPage::Index::Programs&#45;&gt;Documentable::DocPage</title>
<path fill="none" stroke="#000000" d="M319.15,-1527.24C367.01,-1520.93 412.06,-1515 412.06,-1515 412.06,-1515 524.59,-1422.38 579.48,-1377.21"/>
<polygon fill="#000000" stroke="#000000" points="581.96,-1379.7 587.46,-1370.65 577.51,-1374.3 581.96,-1379.7"/>
</g>
<!-- Documentable::DocPage::Index::Routine -->
<g id="node18" class="node">
<title>Documentable::DocPage::Index::Routine</title>
<g id="a_node18"><a xlink:href="/type/Documentable::DocPage::Index::Routine" xlink:title="Documentable::DocPage::Index::Routine">
<ellipse fill="none" stroke="#000000" cx="206.03" cy="-1488" rx="191.17" ry="18"/>
<text text-anchor="middle" x="206.03" y="-1484.3" font-family="FreeSans" font-size="14.00" fill="#000000">Documentable::DocPage::Index::Routine</text>
</a>
</g>
</g>
<!-- Documentable::DocPage::Index::Routine&#45;&gt;Documentable::DocPage -->
<g id="edge7" class="edge">
<title>Documentable::DocPage::Index::Routine&#45;&gt;Documentable::DocPage</title>
<path fill="none" stroke="#000000" d="M317.95,-1473.39C366.26,-1467.03 412.06,-1461 412.06,-1461 412.06,-1461 510.79,-1406.83 568.4,-1375.22"/>
<polygon fill="#000000" stroke="#000000" points="570.19,-1378.23 577.27,-1370.35 566.82,-1372.09 570.19,-1378.23"/>
</g>
<!-- Documentable::DocPage::Index::Type -->
<g id="node19" class="node">
<title>Documentable::DocPage::Index::Type</title>
<g id="a_node19"><a xlink:href="/type/Documentable::DocPage::Index::Type" xlink:title="Documentable::DocPage::Index::Type">
<ellipse fill="none" stroke="#000000" cx="206.03" cy="-1434" rx="176.57" ry="18"/>
<text text-anchor="middle" x="206.03" y="-1430.3" font-family="FreeSans" font-size="14.00" fill="#000000">Documentable::DocPage::Index::Type</text>
</a>
</g>
</g>
<!-- Documentable::DocPage::Index::Type&#45;&gt;Documentable::DocPage -->
<g id="edge8" class="edge">
<title>Documentable::DocPage::Index::Type&#45;&gt;Documentable::DocPage</title>
<path fill="none" stroke="#000000" d="M314.95,-1419.79C364.35,-1413.28 412.06,-1407 412.06,-1407 412.06,-1407 485.36,-1386.89 542.49,-1371.22"/>
<polygon fill="#000000" stroke="#000000" points="543.51,-1374.57 552.23,-1368.55 541.66,-1367.82 543.51,-1374.57"/>
</g>
<!-- Documentable::DocPage::Primary::Language -->
<g id="node20" class="node">
<title>Documentable::DocPage::Primary::Language</title>
<g id="a_node20"><a xlink:href="/type/Documentable::DocPage::Primary::Language" xlink:title="Documentable::DocPage::Primary::Language">
<ellipse fill="none" stroke="#000000" cx="206.03" cy="-1380" rx="206.06" ry="18"/>
<text text-anchor="middle" x="206.03" y="-1376.3" font-family="FreeSans" font-size="14.00" fill="#000000">Documentable::DocPage::Primary::Language</text>
</a>
</g>
</g>
<!-- Documentable::DocPage::Primary::Language&#45;&gt;Documentable::DocPage -->
<g id="edge9" class="edge">
<title>Documentable::DocPage::Primary::Language&#45;&gt;Documentable::DocPage</title>
<path fill="none" stroke="#000000" d="M369.91,-1369.06C411.95,-1366.23 456.3,-1363.25 495.22,-1360.64"/>
<polygon fill="#000000" stroke="#000000" points="495.78,-1364.11 505.53,-1359.95 495.31,-1357.12 495.78,-1364.11"/>
</g>
<!-- Documentable::DocPage::Primary::Programs -->
<g id="node21" class="node">
<title>Documentable::DocPage::Primary::Programs</title>
<g id="a_node21"><a xlink:href="/type/Documentable::DocPage::Primary::Programs" xlink:title="Documentable::DocPage::Primary::Programs">
<ellipse fill="none" stroke="#000000" cx="206.03" cy="-1326" rx="206.06" ry="18"/>
<text text-anchor="middle" x="206.03" y="-1322.3" font-family="FreeSans" font-size="14.00" fill="#000000">Documentable::DocPage::Primary::Programs</text>
</a>
</g>
</g>
<!-- Documentable::DocPage::Primary::Programs&#45;&gt;Documentable::DocPage -->
<g id="edge10" class="edge">
<title>Documentable::DocPage::Primary::Programs&#45;&gt;Documentable::DocPage</title>
<path fill="none" stroke="#000000" d="M369.91,-1336.94C411.95,-1339.77 456.3,-1342.75 495.22,-1345.36"/>
<polygon fill="#000000" stroke="#000000" points="495.31,-1348.88 505.53,-1346.05 495.78,-1341.89 495.31,-1348.88"/>
</g>
<!-- Documentable::DocPage::Primary::Type -->
<g id="node22" class="node">
<title>Documentable::DocPage::Primary::Type</title>
<g id="a_node22"><a xlink:href="/type/Documentable::DocPage::Primary::Type" xlink:title="Documentable::DocPage::Primary::Type">
<ellipse fill="none" stroke="#000000" cx="206.03" cy="-1272" rx="186.57" ry="18"/>
<text text-anchor="middle" x="206.03" y="-1268.3" font-family="FreeSans" font-size="14.00" fill="#000000">Documentable::DocPage::Primary::Type</text>
</a>
</g>
</g>
<!-- Documentable::DocPage::Primary::Type&#45;&gt;Documentable::DocPage -->
<g id="edge11" class="edge">
<title>Documentable::DocPage::Primary::Type&#45;&gt;Documentable::DocPage</title>
<path fill="none" stroke="#000000" d="M317.05,-1286.49C365.69,-1292.89 412.06,-1299 412.06,-1299 412.06,-1299 485.36,-1319.11 542.49,-1334.78"/>
<polygon fill="#000000" stroke="#000000" points="541.66,-1338.18 552.23,-1337.45 543.51,-1331.43 541.66,-1338.18"/>
</g>
<!-- Documentable::DocPage::Secondary -->
<g id="node23" class="node">
<title>Documentable::DocPage::Secondary</title>
<g id="a_node23"><a xlink:href="/type/Documentable::DocPage::Secondary" xlink:title="Documentable::DocPage::Secondary">
<ellipse fill="none" stroke="#000000" cx="206.03" cy="-1218" rx="167.07" ry="18"/>
<text text-anchor="middle" x="206.03" y="-1214.3" font-family="FreeSans" font-size="14.00" fill="#000000">Documentable::DocPage::Secondary</text>
</a>
</g>
</g>
<!-- Documentable::DocPage::Secondary&#45;&gt;Documentable::DocPage -->
<g id="edge12" class="edge">
<title>Documentable::DocPage::Secondary&#45;&gt;Documentable::DocPage</title>
<path fill="none" stroke="#000000" d="M312.55,-1231.9C362.79,-1238.51 412.06,-1245 412.06,-1245 412.06,-1245 510.79,-1299.17 568.4,-1330.78"/>
<polygon fill="#000000" stroke="#000000" points="566.82,-1333.91 577.27,-1335.65 570.19,-1327.77 566.82,-1333.91"/>
</g>
<!-- Documentable::DocPage::SubIndex::Routine -->
<g id="node24" class="node">
<title>Documentable::DocPage::SubIndex::Routine</title>
<g id="a_node24"><a xlink:href="/type/Documentable::DocPage::SubIndex::Routine" xlink:title="Documentable::DocPage::SubIndex::Routine">
<ellipse fill="none" stroke="#000000" cx="206.03" cy="-1164" rx="206.06" ry="18"/>
<text text-anchor="middle" x="206.03" y="-1160.3" font-family="FreeSans" font-size="14.00" fill="#000000">Documentable::DocPage::SubIndex::Routine</text>
</a>
</g>
</g>
<!-- Documentable::DocPage::SubIndex::Routine&#45;&gt;Documentable::DocPage -->
<g id="edge13" class="edge">
<title>Documentable::DocPage::SubIndex::Routine&#45;&gt;Documentable::DocPage</title>
<path fill="none" stroke="#000000" d="M320.64,-1178.96C367.95,-1185.19 412.06,-1191 412.06,-1191 412.06,-1191 524.59,-1283.62 579.48,-1328.79"/>
<polygon fill="#000000" stroke="#000000" points="577.51,-1331.7 587.46,-1335.35 581.96,-1326.3 577.51,-1331.7"/>
</g>
<!-- Documentable::DocPage::SubIndex::Type -->
<g id="node25" class="node">
<title>Documentable::DocPage::SubIndex::Type</title>
<g id="a_node25"><a xlink:href="/type/Documentable::DocPage::SubIndex::Type" xlink:title="Documentable::DocPage::SubIndex::Type">
<ellipse fill="none" stroke="#000000" cx="206.03" cy="-1110" rx="191.17" ry="18"/>
<text text-anchor="middle" x="206.03" y="-1106.3" font-family="FreeSans" font-size="14.00" fill="#000000">Documentable::DocPage::SubIndex::Type</text>
</a>
</g>
</g>
<!-- Documentable::DocPage::SubIndex::Type&#45;&gt;Documentable::DocPage -->
<g id="edge14" class="edge">
<title>Documentable::DocPage::SubIndex::Type&#45;&gt;Documentable::DocPage</title>
<path fill="none" stroke="#000000" d="M317.95,-1124.61C366.26,-1130.97 412.06,-1137 412.06,-1137 412.06,-1137 533.46,-1270.22 585.58,-1327.41"/>
<polygon fill="#000000" stroke="#000000" points="583.13,-1329.92 592.46,-1334.96 588.31,-1325.21 583.13,-1329.92"/>
</g>
<!-- Documentable::Heading::Actions -->
<g id="node26" class="node">
<title>Documentable::Heading::Actions</title>
<g id="a_node26"><a xlink:href="/type/Documentable::Heading::Actions" xlink:title="Documentable::Heading::Actions">
<ellipse fill="none" stroke="#000000" cx="609.9" cy="-342" rx="157.07" ry="18"/>
<text text-anchor="middle" x="609.9" y="-338.3" font-family="FreeSans" font-size="14.00" fill="#000000">Documentable::Heading::Actions</text>
</a>
</g>
</g>
<!-- Documentable::Heading::Actions&#45;&gt;Any -->
<g id="edge15" class="edge">
<title>Documentable::Heading::Actions&#45;&gt;Any</title>
<path fill="none" stroke="#000000" d="M699.32,-327.16C736.69,-320.88 771.73,-315 771.73,-315 771.73,-315 799.69,-306.12 823.55,-298.55"/>
<polygon fill="#000000" stroke="#000000" points="824.62,-301.88 833.09,-295.52 822.5,-295.21 824.62,-301.88"/>
</g>
<!-- Documentable::Heading::Grammar -->
<g id="node27" class="node">
<title>Documentable::Heading::Grammar</title>
<g id="a_node27"><a xlink:href="/type/Documentable::Heading::Grammar" xlink:title="Documentable::Heading::Grammar">
<ellipse fill="none" stroke="#000000" cx="609.9" cy="-288" rx="157.07" ry="18"/>
<text text-anchor="middle" x="609.9" y="-284.3" font-family="FreeSans" font-size="14.00" fill="#000000">Documentable::Heading::Grammar</text>
</a>
</g>
</g>
<!-- Documentable::Heading::Grammar&#45;&gt;Any -->
<g id="edge16" class="edge">
<title>Documentable::Heading::Grammar&#45;&gt;Any</title>
<path fill="none" stroke="#000000" d="M767.32,-288C786.98,-288 805.41,-288 820.37,-288"/>
<polygon fill="#000000" stroke="#000000" points="820.61,-291.5 830.61,-288 820.61,-284.5 820.61,-291.5"/>
</g>
<!-- Documentable::Index -->
<g id="node28" class="node">
<title>Documentable::Index</title>
<g id="a_node28"><a xlink:href="/type/Documentable::Index" xlink:title="Documentable::Index">
<ellipse fill="none" stroke="#000000" cx="206.03" cy="-612" rx="103.18" ry="18"/>
<text text-anchor="middle" x="206.03" y="-608.3" font-family="FreeSans" font-size="14.00" fill="#000000">Documentable::Index</text>
</a>
</g>
</g>
<!-- Documentable::Index&#45;&gt;Documentable -->
<g id="edge17" class="edge">
<title>Documentable::Index&#45;&gt;Documentable</title>
<path fill="none" stroke="#000000" d="M288.95,-601.21C346.06,-593.69 412.06,-585 412.06,-585 412.06,-585 481.56,-575.47 537.97,-567.73"/>
<polygon fill="#000000" stroke="#000000" points="538.54,-571.18 547.97,-566.36 537.58,-564.25 538.54,-571.18"/>
</g>
<!-- Documentable::Primary -->
<g id="node29" class="node">
<title>Documentable::Primary</title>
<g id="a_node29"><a xlink:href="/type/Documentable::Primary" xlink:title="Documentable::Primary">
<ellipse fill="none" stroke="#000000" cx="206.03" cy="-558" rx="113.18" ry="18"/>
<text text-anchor="middle" x="206.03" y="-554.3" font-family="FreeSans" font-size="14.00" fill="#000000">Documentable::Primary</text>
</a>
</g>
</g>
<!-- Documentable::Primary&#45;&gt;Documentable -->
<g id="edge18" class="edge">
<title>Documentable::Primary&#45;&gt;Documentable</title>
<path fill="none" stroke="#000000" d="M319.24,-558C386.31,-558 469.87,-558 529.98,-558"/>
<polygon fill="#000000" stroke="#000000" points="530.17,-561.5 540.17,-558 530.17,-554.5 530.17,-561.5"/>
</g>
<!-- Documentable::Registry -->
<g id="node30" class="node">
<title>Documentable::Registry</title>
<g id="a_node30"><a xlink:href="/type/Documentable::Registry" xlink:title="Documentable::Registry">
<ellipse fill="none" stroke="#000000" cx="609.9" cy="-234" rx="118.08" ry="18"/>
<text text-anchor="middle" x="609.9" y="-230.3" font-family="FreeSans" font-size="14.00" fill="#000000">Documentable::Registry</text>
</a>
</g>
</g>
<!-- Documentable::Registry&#45;&gt;Any -->
<g id="edge19" class="edge">
<title>Documentable::Registry&#45;&gt;Any</title>
<path fill="none" stroke="#000000" d="M689.9,-247.26C730.58,-254.09 771.73,-261 771.73,-261 771.73,-261 799.69,-269.88 823.55,-277.45"/>
<polygon fill="#000000" stroke="#000000" points="822.5,-280.79 833.09,-280.48 824.62,-274.12 822.5,-280.79"/>
</g>
<!-- Documentable::Search -->
<g id="node31" class="node">
<title>Documentable::Search</title>
<g id="a_node31"><a xlink:href="/type/Documentable::Search" xlink:title="Documentable::Search">
<ellipse fill="none" stroke="#000000" cx="609.9" cy="-180" rx="108.58" ry="18"/>
<text text-anchor="middle" x="609.9" y="-176.3" font-family="FreeSans" font-size="14.00" fill="#000000">Documentable::Search</text>
</a>
</g>
</g>
<!-- Documentable::Search&#45;&gt;Any -->
<g id="edge20" class="edge">
<title>Documentable::Search&#45;&gt;Any</title>
<path fill="none" stroke="#000000" d="M687.08,-192.79C728.65,-199.77 771.73,-207 771.73,-207 771.73,-207 799.73,-261 799.73,-261 799.73,-261 812.49,-267.04 825.94,-273.4"/>
<polygon fill="#000000" stroke="#000000" points="824.68,-276.68 835.21,-277.79 827.67,-270.35 824.68,-276.68"/>
</g>
<!-- Documentable::Secondary -->
<g id="node32" class="node">
<title>Documentable::Secondary</title>
<g id="a_node32"><a xlink:href="/type/Documentable::Secondary" xlink:title="Documentable::Secondary">
<ellipse fill="none" stroke="#000000" cx="206.03" cy="-504" rx="122.68" ry="18"/>
<text text-anchor="middle" x="206.03" y="-500.3" font-family="FreeSans" font-size="14.00" fill="#000000">Documentable::Secondary</text>
</a>
</g>
</g>
<!-- Documentable::Secondary&#45;&gt;Documentable -->
<g id="edge21" class="edge">
<title>Documentable::Secondary&#45;&gt;Documentable</title>
<path fill="none" stroke="#000000" d="M297.86,-515.96C352.7,-523.18 412.06,-531 412.06,-531 412.06,-531 481.56,-540.53 537.97,-548.27"/>
<polygon fill="#000000" stroke="#000000" points="537.58,-551.75 547.97,-549.64 538.54,-544.82 537.58,-551.75"/>
</g>
<!-- Documentable::To::HTML::Wrapper -->
<g id="node33" class="node">
<title>Documentable::To::HTML::Wrapper</title>
<g id="a_node33"><a xlink:href="/type/Documentable::To::HTML::Wrapper" xlink:title="Documentable::To::HTML::Wrapper">
<ellipse fill="none" stroke="#000000" cx="609.9" cy="-126" rx="161.67" ry="18"/>
<text text-anchor="middle" x="609.9" y="-122.3" font-family="FreeSans" font-size="14.00" fill="#000000">Documentable::To::HTML::Wrapper</text>
</a>
</g>
</g>
<!-- Documentable::To::HTML::Wrapper&#45;&gt;Any -->
<g id="edge22" class="edge">
<title>Documentable::To::HTML::Wrapper&#45;&gt;Any</title>
<path fill="none" stroke="#000000" d="M700.25,-141C737.27,-147.21 771.73,-153 771.73,-153 771.73,-153 799.73,-261 799.73,-261 799.73,-261 812.49,-267.04 825.94,-273.4"/>
<polygon fill="#000000" stroke="#000000" points="824.68,-276.68 835.21,-277.79 827.67,-270.35 824.68,-276.68"/>
</g>
<!-- Exception -->
<g id="node34" class="node">
<title>Exception</title>
<g id="a_node34"><a xlink:href="/type/Exception" xlink:title="Exception">
<ellipse fill="none" stroke="#000000" cx="609.9" cy="-72" rx="54.69" ry="18"/>
<text text-anchor="middle" x="609.9" y="-68.3" font-family="FreeSans" font-size="14.00" fill="#000000">Exception</text>
</a>
</g>
</g>
<!-- Exception&#45;&gt;Any -->
<g id="edge23" class="edge">
<title>Exception&#45;&gt;Any</title>
<path fill="none" stroke="#000000" d="M659.16,-80.1C706.53,-88.05 771.73,-99 771.73,-99 771.73,-99 799.73,-261 799.73,-261 799.73,-261 812.49,-267.04 825.94,-273.4"/>
<polygon fill="#000000" stroke="#000000" points="824.68,-276.68 835.21,-277.79 827.67,-270.35 824.68,-276.68"/>
</g>
<!-- Kind -->
<g id="node35" class="node">
<title>Kind</title>
<g id="a_node35"><a xlink:href="/type/Kind" xlink:title="Kind">
<ellipse fill="none" stroke="#33bb33" cx="609.9" cy="-18" rx="30.59" ry="18"/>
<text text-anchor="middle" x="609.9" y="-14.3" font-family="FreeSans" font-size="14.00" fill="#33bb33">Kind</text>
</a>
</g>
</g>
<!-- Kind&#45;&gt;Any -->
<g id="edge24" class="edge">
<title>Kind&#45;&gt;Any</title>
<path fill="none" stroke="#000000" d="M639.65,-22.83C685.92,-30.59 771.73,-45 771.73,-45 771.73,-45 799.73,-261 799.73,-261 799.73,-261 812.49,-267.04 825.94,-273.4"/>
<polygon fill="#000000" stroke="#000000" points="824.68,-276.68 835.21,-277.79 827.67,-270.35 824.68,-276.68"/>
</g>
</g>
</svg>
