<?xml version="1.0" encoding="UTF-8" standalone="no"?>
<!DOCTYPE svg PUBLIC "-//W3C//DTD SVG 1.1//EN"
 "http://www.w3.org/Graphics/SVG/1.1/DTD/svg11.dtd">
<!-- Generated by graphviz version 2.42.3 ()
 -->
<!-- Title: perl6&#45;type&#45;graph Pages: 1 -->
<svg width="4016pt" height="116pt"
 viewBox="0.00 0.00 4015.82 116.00" xmlns="http://www.w3.org/2000/svg" xmlns:xlink="http://www.w3.org/1999/xlink">
<g id="graph0" class="graph" transform="scale(1 1) rotate(0) translate(4 112)">
<title>perl6&#45;type&#45;graph</title>
<polygon fill="white" stroke="transparent" points="-4,4 -4,-112 4011.82,-112 4011.82,4 -4,4"/>
<!-- Documentable::DocPage -->
<g id="node1" class="node">
<title>Documentable::DocPage</title>
<g id="a_node1"><a xlink:href="/type/Documentable::DocPage" xlink:title="Documentable::DocPage">
<ellipse fill="none" stroke="#6666ff" cx="2067.53" cy="-90" rx="113.18" ry="18"/>
<text text-anchor="middle" x="2067.53" y="-86.3" font-family="FreeSans" font-size="14.00" fill="#6666ff">Documentable::DocPage</text>
</a>
</g>
</g>
<!-- Documentable::DocPage::Primary::Type -->
<g id="node2" class="node">
<title>Documentable::DocPage::Primary::Type</title>
<g id="a_node2"><a xlink:href="/type/Documentable::DocPage::Primary::Type" xlink:title="Documentable::DocPage::Primary::Type">
<ellipse fill="none" stroke="#000000" cx="186.53" cy="-18" rx="186.57" ry="18"/>
<text text-anchor="middle" x="186.53" y="-14.3" font-family="FreeSans" font-size="14.00" fill="#000000">Documentable::DocPage::Primary::Type</text>
</a>
</g>
</g>
<!-- Documentable::DocPage::Primary::Type&#45;&gt;Documentable::DocPage -->
<g id="edge1" class="edge">
<title>Documentable::DocPage::Primary::Type&#45;&gt;Documentable::DocPage</title>
<path fill="none" stroke="#000000" d="M320.25,-30.6C354.83,-33.6 382.53,-36 382.53,-36 382.53,-36 1562.48,-73.11 1947.57,-85.23"/>
<polygon fill="#000000" stroke="#000000" points="1947.52,-88.73 1957.63,-85.54 1947.74,-81.73 1947.52,-88.73"/>
</g>
<!-- Documentable::DocPage::SubIndex::Routine -->
<g id="node3" class="node">
<title>Documentable::DocPage::SubIndex::Routine</title>
<g id="a_node3"><a xlink:href="/type/Documentable::DocPage::SubIndex::Routine" xlink:title="Documentable::DocPage::SubIndex::Routine">
<ellipse fill="none" stroke="#000000" cx="597.53" cy="-18" rx="206.06" ry="18"/>
<text text-anchor="middle" x="597.53" y="-14.3" font-family="FreeSans" font-size="14.00" fill="#000000">Documentable::DocPage::SubIndex::Routine</text>
</a>
</g>
</g>
<!-- Documentable::DocPage::SubIndex::Routine&#45;&gt;Documentable::DocPage -->
<g id="edge2" class="edge">
<title>Documentable::DocPage::SubIndex::Routine&#45;&gt;Documentable::DocPage</title>
<path fill="none" stroke="#000000" d="M744.51,-30.62C782.3,-33.61 812.53,-36 812.53,-36 812.53,-36 1636.7,-70.81 1949.27,-84.01"/>
<polygon fill="#000000" stroke="#000000" points="1949.58,-87.52 1959.72,-84.45 1949.88,-80.53 1949.58,-87.52"/>
</g>
<!-- Documentable::DocPage::Index::Programs -->
<g id="node4" class="node">
<title>Documentable::DocPage::Index::Programs</title>
<g id="a_node4"><a xlink:href="/type/Documentable::DocPage::Index::Programs" xlink:title="Documentable::DocPage::Index::Programs">
<ellipse fill="none" stroke="#000000" cx="1017.53" cy="-18" rx="196.07" ry="18"/>
<text text-anchor="middle" x="1017.53" y="-14.3" font-family="FreeSans" font-size="14.00" fill="#000000">Documentable::DocPage::Index::Programs</text>
</a>
</g>
</g>
<!-- Documentable::DocPage::Index::Programs&#45;&gt;Documentable::DocPage -->
<g id="edge3" class="edge">
<title>Documentable::DocPage::Index::Programs&#45;&gt;Documentable::DocPage</title>
<path fill="none" stroke="#000000" d="M1157.67,-30.62C1193.71,-33.61 1222.53,-36 1222.53,-36 1222.53,-36 1723.91,-67.45 1954.25,-81.89"/>
<polygon fill="#000000" stroke="#000000" points="1954.14,-85.39 1964.34,-82.53 1954.58,-78.41 1954.14,-85.39"/>
</g>
<!-- Documentable::DocPage::Primary::Programs -->
<g id="node5" class="node">
<title>Documentable::DocPage::Primary::Programs</title>
<g id="a_node5"><a xlink:href="/type/Documentable::DocPage::Primary::Programs" xlink:title="Documentable::DocPage::Primary::Programs">
<ellipse fill="none" stroke="#000000" cx="1437.53" cy="-18" rx="206.06" ry="18"/>
<text text-anchor="middle" x="1437.53" y="-14.3" font-family="FreeSans" font-size="14.00" fill="#000000">Documentable::DocPage::Primary::Programs</text>
</a>
</g>
</g>
<!-- Documentable::DocPage::Primary::Programs&#45;&gt;Documentable::DocPage -->
<g id="edge4" class="edge">
<title>Documentable::DocPage::Primary::Programs&#45;&gt;Documentable::DocPage</title>
<path fill="none" stroke="#000000" d="M1559.38,-32.54C1678.18,-45.74 1856.68,-65.57 1967.44,-77.88"/>
<polygon fill="#000000" stroke="#000000" points="1967.29,-81.38 1977.61,-79.01 1968.06,-74.43 1967.29,-81.38"/>
</g>
<!-- Documentable::DocPage::Primary::Language -->
<g id="node6" class="node">
<title>Documentable::DocPage::Primary::Language</title>
<g id="a_node6"><a xlink:href="/type/Documentable::DocPage::Primary::Language" xlink:title="Documentable::DocPage::Primary::Language">
<ellipse fill="none" stroke="#000000" cx="1867.53" cy="-18" rx="206.06" ry="18"/>
<text text-anchor="middle" x="1867.53" y="-14.3" font-family="FreeSans" font-size="14.00" fill="#000000">Documentable::DocPage::Primary::Language</text>
</a>
</g>
</g>
<!-- Documentable::DocPage::Primary::Language&#45;&gt;Documentable::DocPage -->
<g id="edge5" class="edge">
<title>Documentable::DocPage::Primary::Language&#45;&gt;Documentable::DocPage</title>
<path fill="none" stroke="#000000" d="M1914.93,-35.59C1944.43,-45.91 1982.46,-59.23 2013.18,-69.98"/>
<polygon fill="#000000" stroke="#000000" points="2012.28,-73.37 2022.88,-73.37 2014.59,-66.76 2012.28,-73.37"/>
</g>
<!-- Documentable::DocPage::Index::Type -->
<g id="node7" class="node">
<title>Documentable::DocPage::Index::Type</title>
<g id="a_node7"><a xlink:href="/type/Documentable::DocPage::Index::Type" xlink:title="Documentable::DocPage::Index::Type">
<ellipse fill="none" stroke="#000000" cx="2268.53" cy="-18" rx="176.57" ry="18"/>
<text text-anchor="middle" x="2268.53" y="-14.3" font-family="FreeSans" font-size="14.00" fill="#000000">Documentable::DocPage::Index::Type</text>
</a>
</g>
</g>
<!-- Documentable::DocPage::Index::Type&#45;&gt;Documentable::DocPage -->
<g id="edge6" class="edge">
<title>Documentable::DocPage::Index::Type&#45;&gt;Documentable::DocPage</title>
<path fill="none" stroke="#000000" d="M2221.41,-35.41C2191.67,-45.77 2153.15,-59.18 2122.1,-70"/>
<polygon fill="#000000" stroke="#000000" points="2120.59,-66.82 2112.29,-73.41 2122.89,-73.43 2120.59,-66.82"/>
</g>
<!-- Documentable::DocPage::Secondary -->
<g id="node8" class="node">
<title>Documentable::DocPage::Secondary</title>
<g id="a_node8"><a xlink:href="/type/Documentable::DocPage::Secondary" xlink:title="Documentable::DocPage::Secondary">
<ellipse fill="none" stroke="#000000" cx="2630.53" cy="-18" rx="167.07" ry="18"/>
<text text-anchor="middle" x="2630.53" y="-14.3" font-family="FreeSans" font-size="14.00" fill="#000000">Documentable::DocPage::Secondary</text>
</a>
</g>
</g>
<!-- Documentable::DocPage::Secondary&#45;&gt;Documentable::DocPage -->
<g id="edge7" class="edge">
<title>Documentable::DocPage::Secondary&#45;&gt;Documentable::DocPage</title>
<path fill="none" stroke="#000000" d="M2525.63,-32.04C2421.98,-44.93 2264.74,-64.48 2164.09,-76.99"/>
<polygon fill="#000000" stroke="#000000" points="2163.42,-73.55 2153.93,-78.26 2164.28,-80.5 2163.42,-73.55"/>
</g>
<!-- Documentable::DocPage::SubIndex::Type -->
<g id="node9" class="node">
<title>Documentable::DocPage::SubIndex::Type</title>
<g id="a_node9"><a xlink:href="/type/Documentable::DocPage::SubIndex::Type" xlink:title="Documentable::DocPage::SubIndex::Type">
<ellipse fill="none" stroke="#000000" cx="3006.53" cy="-18" rx="191.17" ry="18"/>
<text text-anchor="middle" x="3006.53" y="-14.3" font-family="FreeSans" font-size="14.00" fill="#000000">Documentable::DocPage::SubIndex::Type</text>
</a>
</g>
</g>
<!-- Documentable::DocPage::SubIndex::Type&#45;&gt;Documentable::DocPage -->
<g id="edge8" class="edge">
<title>Documentable::DocPage::SubIndex::Type&#45;&gt;Documentable::DocPage</title>
<path fill="none" stroke="#000000" d="M2869.81,-30.62C2834.66,-33.61 2806.53,-36 2806.53,-36 2806.53,-36 2384.93,-66.24 2178.61,-81.03"/>
<polygon fill="#000000" stroke="#000000" points="2178.08,-77.56 2168.35,-81.77 2178.58,-84.54 2178.08,-77.56"/>
</g>
<!-- Documentable::DocPage::Index::Routine -->
<g id="node10" class="node">
<title>Documentable::DocPage::Index::Routine</title>
<g id="a_node10"><a xlink:href="/type/Documentable::DocPage::Index::Routine" xlink:title="Documentable::DocPage::Index::Routine">
<ellipse fill="none" stroke="#000000" cx="3406.53" cy="-18" rx="191.17" ry="18"/>
<text text-anchor="middle" x="3406.53" y="-14.3" font-family="FreeSans" font-size="14.00" fill="#000000">Documentable::DocPage::Index::Routine</text>
</a>
</g>
</g>
<!-- Documentable::DocPage::Index::Routine&#45;&gt;Documentable::DocPage -->
<g id="edge9" class="edge">
<title>Documentable::DocPage::Index::Routine&#45;&gt;Documentable::DocPage</title>
<path fill="none" stroke="#000000" d="M3269.81,-30.62C3234.66,-33.61 3206.53,-36 3206.53,-36 3206.53,-36 2475.22,-70.03 2184.58,-83.55"/>
<polygon fill="#000000" stroke="#000000" points="2184.26,-80.06 2174.43,-84.03 2184.58,-87.06 2184.26,-80.06"/>
</g>
<!-- Documentable::DocPage::Index::Language -->
<g id="node11" class="node">
<title>Documentable::DocPage::Index::Language</title>
<g id="a_node11"><a xlink:href="/type/Documentable::DocPage::Index::Language" xlink:title="Documentable::DocPage::Index::Language">
<ellipse fill="none" stroke="#000000" cx="3811.53" cy="-18" rx="196.07" ry="18"/>
<text text-anchor="middle" x="3811.53" y="-14.3" font-family="FreeSans" font-size="14.00" fill="#000000">Documentable::DocPage::Index::Language</text>
</a>
</g>
</g>
<!-- Documentable::DocPage::Index::Language&#45;&gt;Documentable::DocPage -->
<g id="edge10" class="edge">
<title>Documentable::DocPage::Index::Language&#45;&gt;Documentable::DocPage</title>
<path fill="none" stroke="#000000" d="M3671.4,-30.62C3635.36,-33.61 3606.53,-36 3606.53,-36 3606.53,-36 2548.39,-72.44 2186.9,-84.89"/>
<polygon fill="#000000" stroke="#000000" points="2186.55,-81.4 2176.67,-85.24 2186.79,-88.4 2186.55,-81.4"/>
</g>
</g>
</svg>
