<?xml version="1.0" encoding="UTF-8" standalone="no"?>
<!DOCTYPE svg PUBLIC "-//W3C//DTD SVG 1.1//EN"
 "http://www.w3.org/Graphics/SVG/1.1/DTD/svg11.dtd">
<!-- Generated by graphviz version 2.42.3 ()
 -->
<!-- Title: perl6&#45;type&#45;graph Pages: 1 -->
<svg width="342pt" height="188pt"
 viewBox="0.00 0.00 342.07 188.00" xmlns="http://www.w3.org/2000/svg" xmlns:xlink="http://www.w3.org/1999/xlink">
<g id="graph0" class="graph" transform="scale(1 1) rotate(0) translate(4 184)">
<title>perl6&#45;type&#45;graph</title>
<polygon fill="white" stroke="transparent" points="-4,4 -4,-184 338.07,-184 338.07,4 -4,4"/>
<!-- X::Documentable::MissingMetadata -->
<g id="node1" class="node">
<title>X::Documentable::MissingMetadata</title>
<g id="a_node1"><a xlink:href="/type/X::Documentable::MissingMetadata" xlink:title="X::Documentable::MissingMetadata">
<ellipse fill="none" stroke="#000000" cx="167.04" cy="-18" rx="167.07" ry="18"/>
<text text-anchor="middle" x="167.04" y="-14.3" font-family="FreeSans" font-size="14.00" fill="#000000">X::Documentable::MissingMetadata</text>
</a>
</g>
</g>
<!-- Exception -->
<g id="node3" class="node">
<title>Exception</title>
<g id="a_node3"><a xlink:href="/type/Exception" xlink:title="Exception">
<ellipse fill="none" stroke="#000000" cx="167.04" cy="-90" rx="54.69" ry="18"/>
<text text-anchor="middle" x="167.04" y="-86.3" font-family="FreeSans" font-size="14.00" fill="#000000">Exception</text>
</a>
</g>
</g>
<!-- X::Documentable::MissingMetadata&#45;&gt;Exception -->
<g id="edge1" class="edge">
<title>X::Documentable::MissingMetadata&#45;&gt;Exception</title>
<path fill="none" stroke="#000000" d="M167.04,-36.3C167.04,-44.02 167.04,-53.29 167.04,-61.89"/>
<polygon fill="#000000" stroke="#000000" points="163.54,-61.9 167.04,-71.9 170.54,-61.9 163.54,-61.9"/>
</g>
<!-- Any -->
<g id="node2" class="node">
<title>Any</title>
<g id="a_node2"><a xlink:href="/type/Any" xlink:title="Any">
<ellipse fill="none" stroke="#000000" cx="167.04" cy="-162" rx="27" ry="18"/>
<text text-anchor="middle" x="167.04" y="-158.3" font-family="FreeSans" font-size="14.00" fill="#000000">Any</text>
</a>
</g>
</g>
<!-- Exception&#45;&gt;Any -->
<g id="edge2" class="edge">
<title>Exception&#45;&gt;Any</title>
<path fill="none" stroke="#000000" d="M167.04,-108.3C167.04,-116.02 167.04,-125.29 167.04,-133.89"/>
<polygon fill="#000000" stroke="#000000" points="163.54,-133.9 167.04,-143.9 170.54,-133.9 163.54,-133.9"/>
</g>
</g>
</svg>
