<?xml version="1.0" encoding="UTF-8" standalone="no"?>
<!DOCTYPE svg PUBLIC "-//W3C//DTD SVG 1.1//EN"
 "http://www.w3.org/Graphics/SVG/1.1/DTD/svg11.dtd">
<!-- Generated by graphviz version 2.42.3 ()
 -->
<!-- Title: perl6&#45;type&#45;graph Pages: 1 -->
<svg width="351pt" height="188pt"
 viewBox="0.00 0.00 351.17 188.00" xmlns="http://www.w3.org/2000/svg" xmlns:xlink="http://www.w3.org/1999/xlink">
<g id="graph0" class="graph" transform="scale(1 1) rotate(0) translate(4 184)">
<title>perl6&#45;type&#45;graph</title>
<polygon fill="white" stroke="transparent" points="-4,4 -4,-184 347.17,-184 347.17,4 -4,4"/>
<!-- X::Documentable::SubtitleNotFound -->
<g id="node1" class="node">
<title>X::Documentable::SubtitleNotFound</title>
<g id="a_node1"><a xlink:href="/type/X::Documentable::SubtitleNotFound" xlink:title="X::Documentable::SubtitleNotFound">
<ellipse fill="none" stroke="#000000" cx="171.58" cy="-18" rx="171.67" ry="18"/>
<text text-anchor="middle" x="171.58" y="-14.3" font-family="FreeSans" font-size="14.00" fill="#000000">X::Documentable::SubtitleNotFound</text>
</a>
</g>
</g>
<!-- Exception -->
<g id="node3" class="node">
<title>Exception</title>
<g id="a_node3"><a xlink:href="/type/Exception" xlink:title="Exception">
<ellipse fill="none" stroke="#000000" cx="171.58" cy="-90" rx="54.69" ry="18"/>
<text text-anchor="middle" x="171.58" y="-86.3" font-family="FreeSans" font-size="14.00" fill="#000000">Exception</text>
</a>
</g>
</g>
<!-- X::Documentable::SubtitleNotFound&#45;&gt;Exception -->
<g id="edge1" class="edge">
<title>X::Documentable::SubtitleNotFound&#45;&gt;Exception</title>
<path fill="none" stroke="#000000" d="M171.58,-36.3C171.58,-44.02 171.58,-53.29 171.58,-61.89"/>
<polygon fill="#000000" stroke="#000000" points="168.08,-61.9 171.58,-71.9 175.08,-61.9 168.08,-61.9"/>
</g>
<!-- Any -->
<g id="node2" class="node">
<title>Any</title>
<g id="a_node2"><a xlink:href="/type/Any" xlink:title="Any">
<ellipse fill="none" stroke="#000000" cx="171.58" cy="-162" rx="27" ry="18"/>
<text text-anchor="middle" x="171.58" y="-158.3" font-family="FreeSans" font-size="14.00" fill="#000000">Any</text>
</a>
</g>
</g>
<!-- Exception&#45;&gt;Any -->
<g id="edge2" class="edge">
<title>Exception&#45;&gt;Any</title>
<path fill="none" stroke="#000000" d="M171.58,-108.3C171.58,-116.02 171.58,-125.29 171.58,-133.89"/>
<polygon fill="#000000" stroke="#000000" points="168.08,-133.9 171.58,-143.9 175.08,-133.9 168.08,-133.9"/>
</g>
</g>
</svg>
